<svg xmlns="http://www.w3.org/2000/svg" viewBox="0 0 32 32">
  <!-- radiating rays -->
  <g stroke="#fb7185" stroke-width="1.6" stroke-linecap="round">
    <line x1="16" y1="2"  x2="16" y2="5"/>
    <line x1="16" y1="27" x2="16" y2="30"/>
    <line x1="2"  y1="16" x2="5"  y2="16"/>
    <line x1="27" y1="16" x2="30" y2="16"/>
    <line x1="5"  y1="5"  x2="7"  y2="7"/>
    <line x1="25" y1="7"  x2="27" y2="5"/>
    <line x1="5"  y1="27" x2="7"  y2="25"/>
    <line x1="25" y1="25" x2="27" y2="27"/>
  </g>
  <!-- heart -->
  <path d="M16 24 C 8 18, 8 10, 13 10 C 15 10, 16 12, 16 13 C 16 12, 17 10, 19 10 C 24 10, 24 18, 16 24 Z"
        fill="#f43f5e"/>
  <!-- highlight -->
  <ellipse cx="12.5" cy="13" rx="1.5" ry="1" fill="#fff" opacity="0.75"/>
</svg>
